<svg width="79" height="18" viewBox="0 0 79 18" fill="none" xmlns="http://www.w3.org/2000/svg">
<path d="M8.486 11.562C8.486 12.138 8.342 12.69 8.054 13.218C7.766 13.734 7.34 14.166 6.776 14.514C6.224 14.862 5.558 15.06 4.778 15.108V16.566H3.806V15.108C2.714 15.012 1.826 14.664 1.142 14.064C0.458 13.452 0.11 12.678 0.0980001 11.742H1.844C1.892 12.246 2.078 12.684 2.402 13.056C2.738 13.428 3.206 13.662 3.806 13.758V9.258C3.002 9.054 2.354 8.844 1.862 8.628C1.37 8.412 0.95 8.076 0.602 7.62C0.254 7.164 0.08 6.552 0.08 5.784C0.08 4.812 0.416 4.008 1.088 3.372C1.772 2.736 2.678 2.382 3.806 2.31V0.815999H4.778V2.31C5.798 2.394 6.62 2.724 7.244 3.3C7.868 3.864 8.228 4.602 8.324 5.514H6.578C6.518 5.094 6.332 4.716 6.02 4.38C5.708 4.032 5.294 3.804 4.778 3.696V8.088C5.57 8.292 6.212 8.502 6.704 8.718C7.208 8.922 7.628 9.252 7.964 9.708C8.312 10.164 8.486 10.782 8.486 11.562ZM1.754 5.694C1.754 6.282 1.928 6.732 2.276 7.044C2.624 7.356 3.134 7.614 3.806 7.818V3.66C3.182 3.72 2.684 3.924 2.312 4.272C1.94 4.608 1.754 5.082 1.754 5.694ZM4.778 13.776C5.426 13.704 5.93 13.47 6.29 13.074C6.662 12.678 6.848 12.204 6.848 11.652C6.848 11.064 6.668 10.614 6.308 10.302C5.948 9.978 5.438 9.72 4.778 9.528V13.776ZM11.2773 5.262C11.3613 4.158 11.7873 3.294 12.5553 2.67C13.3233 2.046 14.3193 1.734 15.5433 1.734C16.3593 1.734 17.0613 1.884 17.6493 2.184C18.2493 2.472 18.6993 2.868 18.9993 3.372C19.3113 3.876 19.4673 4.446 19.4673 5.082C19.4673 5.826 19.2513 6.468 18.8193 7.008C18.3993 7.548 17.8473 7.896 17.1633 8.052V8.142C17.9433 8.334 18.5613 8.712 19.0173 9.276C19.4733 9.84 19.7013 10.578 19.7013 11.49C19.7013 12.174 19.5453 12.792 19.2333 13.344C18.9213 13.884 18.4533 14.31 17.8293 14.622C17.2053 14.934 16.4553 15.09 15.5793 15.09C14.3073 15.09 13.2633 14.76 12.4473 14.1C11.6313 13.428 11.1753 12.48 11.0793 11.256H12.6633C12.7473 11.976 13.0413 12.564 13.5453 13.02C14.0493 13.476 14.7213 13.704 15.5613 13.704C16.4013 13.704 17.0373 13.488 17.4693 13.056C17.9133 12.612 18.1353 12.042 18.1353 11.346C18.1353 10.446 17.8353 9.798 17.2353 9.402C16.6353 9.006 15.7293 8.808 14.5173 8.808H14.1033V7.44H14.5353C15.6393 7.428 16.4733 7.248 17.0373 6.9C17.6013 6.54 17.8833 5.988 17.8833 5.244C17.8833 4.608 17.6733 4.098 17.2533 3.714C16.8453 3.33 16.2573 3.138 15.4893 3.138C14.7453 3.138 14.1453 3.33 13.6893 3.714C13.2333 4.098 12.9633 4.614 12.8793 5.262H11.2773ZM24.0189 11.508C24.1389 12.192 24.4149 12.72 24.8469 13.092C25.2909 13.464 25.8849 13.65 26.6289 13.65C27.6249 13.65 28.3569 13.26 28.8249 12.48C29.3049 11.7 29.5329 10.386 29.5089 8.538C29.2569 9.078 28.8369 9.504 28.2489 9.816C27.6609 10.116 27.0069 10.266 26.2869 10.266C25.4829 10.266 24.7629 10.104 24.1269 9.78C23.5029 9.444 23.0109 8.958 22.6509 8.322C22.2909 7.686 22.1109 6.918 22.1109 6.018C22.1109 4.734 22.4829 3.702 23.2269 2.922C23.9709 2.13 25.0269 1.734 26.3949 1.734C28.0749 1.734 29.2509 2.28 29.9229 3.372C30.6069 4.464 30.9489 6.09 30.9489 8.25C30.9489 9.762 30.8109 11.01 30.5349 11.994C30.2709 12.978 29.8149 13.728 29.1669 14.244C28.5309 14.76 27.6549 15.018 26.5389 15.018C25.3149 15.018 24.3609 14.688 23.6769 14.028C22.9929 13.368 22.6029 12.528 22.5069 11.508H24.0189ZM26.5569 8.88C27.3609 8.88 28.0209 8.634 28.5369 8.142C29.0529 7.638 29.3109 6.96 29.3109 6.108C29.3109 5.208 29.0589 4.482 28.5549 3.93C28.0509 3.378 27.3429 3.102 26.4309 3.102C25.5909 3.102 24.9189 3.366 24.4149 3.894C23.9229 4.422 23.6769 5.118 23.6769 5.982C23.6769 6.858 23.9229 7.56 24.4149 8.088C24.9069 8.616 25.6209 8.88 26.5569 8.88ZM33.0528 13.686C34.5768 12.462 35.7708 11.46 36.6348 10.68C37.4988 9.888 38.2248 9.066 38.8128 8.214C39.4128 7.35 39.7128 6.504 39.7128 5.676C39.7128 4.896 39.5208 4.284 39.1368 3.84C38.7648 3.384 38.1588 3.156 37.3188 3.156C36.5028 3.156 35.8668 3.414 35.4108 3.93C34.9668 4.434 34.7268 5.112 34.6908 5.964H33.1068C33.1548 4.62 33.5628 3.582 34.3308 2.85C35.0988 2.118 36.0888 1.752 37.3008 1.752C38.5368 1.752 39.5148 2.094 40.2348 2.778C40.9668 3.462 41.3328 4.404 41.3328 5.604C41.3328 6.6 41.0328 7.572 40.4328 8.52C39.8448 9.456 39.1728 10.284 38.4168 11.004C37.6608 11.712 36.6948 12.54 35.5188 13.488H41.7108V14.856H33.0528V13.686ZM45.5663 12.732L43.5503 17.574H42.4523L43.7663 12.732H45.5663ZM46.7766 12.102V10.86L53.0946 2.112H55.0566V10.68H56.8566V12.102H55.0566V15H53.4366V12.102H46.7766ZM53.5086 3.822L48.6666 10.68H53.5086V3.822ZM58.493 8.358C58.493 6.294 58.829 4.686 59.501 3.534C60.173 2.37 61.349 1.788 63.029 1.788C64.697 1.788 65.867 2.37 66.539 3.534C67.211 4.686 67.547 6.294 67.547 8.358C67.547 10.458 67.211 12.09 66.539 13.254C65.867 14.418 64.697 15 63.029 15C61.349 15 60.173 14.418 59.501 13.254C58.829 12.09 58.493 10.458 58.493 8.358ZM65.927 8.358C65.927 7.314 65.855 6.432 65.711 5.712C65.579 4.98 65.297 4.392 64.865 3.948C64.445 3.504 63.833 3.282 63.029 3.282C62.213 3.282 61.589 3.504 61.157 3.948C60.737 4.392 60.455 4.98 60.311 5.712C60.179 6.432 60.113 7.314 60.113 8.358C60.113 9.438 60.179 10.344 60.311 11.076C60.455 11.808 60.737 12.396 61.157 12.84C61.589 13.284 62.213 13.506 63.029 13.506C63.833 13.506 64.445 13.284 64.865 12.84C65.297 12.396 65.579 11.808 65.711 11.076C65.855 10.344 65.927 9.438 65.927 8.358ZM71.9017 11.508C72.0217 12.192 72.2977 12.72 72.7297 13.092C73.1737 13.464 73.7677 13.65 74.5117 13.65C75.5077 13.65 76.2397 13.26 76.7077 12.48C77.1877 11.7 77.4157 10.386 77.3917 8.538C77.1397 9.078 76.7197 9.504 76.1317 9.816C75.5437 10.116 74.8897 10.266 74.1697 10.266C73.3657 10.266 72.6457 10.104 72.0097 9.78C71.3857 9.444 70.8937 8.958 70.5337 8.322C70.1737 7.686 69.9937 6.918 69.9937 6.018C69.9937 4.734 70.3657 3.702 71.1097 2.922C71.8537 2.13 72.9097 1.734 74.2777 1.734C75.9577 1.734 77.1337 2.28 77.8057 3.372C78.4897 4.464 78.8317 6.09 78.8317 8.25C78.8317 9.762 78.6937 11.01 78.4177 11.994C78.1537 12.978 77.6977 13.728 77.0497 14.244C76.4137 14.76 75.5377 15.018 74.4217 15.018C73.1977 15.018 72.2437 14.688 71.5597 14.028C70.8757 13.368 70.4857 12.528 70.3897 11.508H71.9017ZM74.4397 8.88C75.2437 8.88 75.9037 8.634 76.4197 8.142C76.9357 7.638 77.1937 6.96 77.1937 6.108C77.1937 5.208 76.9417 4.482 76.4377 3.93C75.9337 3.378 75.2257 3.102 74.3137 3.102C73.4737 3.102 72.8017 3.366 72.2977 3.894C71.8057 4.422 71.5597 5.118 71.5597 5.982C71.5597 6.858 71.8057 7.56 72.2977 8.088C72.7897 8.616 73.5037 8.88 74.4397 8.88Z" fill="#29A867"/>
</svg>
